<?xml version="1.0" encoding="utf-8"?>
<!-- Generator: Adobe Illustrator 16.0.0, SVG Export Plug-In . SVG Version: 6.00 Build 0)  -->
<!DOCTYPE svg PUBLIC "-//W3C//DTD SVG 1.1//EN" "http://www.w3.org/Graphics/SVG/1.1/DTD/svg11.dtd">
<svg version="1.1" id="Calque_1" xmlns="http://www.w3.org/2000/svg" xmlns:xlink="http://www.w3.org/1999/xlink" x="0px" y="0px"
	 width="432px" height="432px" viewBox="0 0 432 432" enable-background="new 0 0 432 432" xml:space="preserve">
<g>
	<g>
		<path fill-rule="evenodd" clip-rule="evenodd" d="M269.431,281.128c-0.781,1.611-1.431,2.944-2.077,4.279
			c-3.139,6.491-6.565,12.827-10.397,18.936c-1.686,2.688-3.815,4.993-6.327,6.973c-4.929,3.888-10.343,2.902-14.312-0.982
			c-1.754-1.717-3.063-3.754-4.14-5.948c-0.187-0.382-0.373-0.762-0.587-1.198c-0.489,0.258-0.569,0.74-0.759,1.13
			c-1.81,3.719-3.609,7.441-5.408,11.165c-0.833,1.729-2.045,3.142-3.585,4.269c-1.882,1.376-3.39,1.459-5.481-0.117
			c-1.146-0.865-1.911-2.046-2.446-3.378c-0.894-2.219-1.37-4.568-2.151-6.822c-0.929-2.68-2.24-5.061-4.891-6.449
			c-1.015-0.532-2.069-0.772-3.196-0.768c-0.844,0.004-0.876,0.028-0.89,0.847c-0.027,1.706-0.041,3.412-0.057,5.118
			c-0.008,0.813-0.065,1.624-0.265,2.412c-0.319,1.252-1.031,2.157-2.379,2.379c-1.293,0.212-2.216-0.421-2.943-1.409
			c-0.515-0.7-0.797-1.523-0.978-2.35c-0.675-3.078-1.323-6.158-1.742-9.289c-0.417-3.126-0.663-6.268-1.062-9.395
			c-0.309-2.403-0.43-4.832-0.6-7.253c-0.051-0.722-0.331-1.397-0.195-2.403c-0.637,0.459-1.044,0.744-1.444,1.04
			c-1.992,1.478-4.111,2.746-6.326,3.855c-0.885,0.443-0.925,0.46-0.686,1.462c0.387,1.623,0.632,3.263,0.692,4.931
			c0.196,5.548-1.213,10.723-3.689,15.636c-1.553,3.077-3.549,5.828-6.245,8.012c-2.644,2.14-5.609,3.551-9.058,3.774
			c-2.728,0.177-5.234-0.522-7.535-1.978c-3.245-2.051-5.538-5-7.693-8.095c-1.122-1.611-2.17-3.27-3.055-5.017
			c-1.515-2.991-2.348-6.204-2.903-9.496c-0.049-0.289-0.032-0.599-0.342-1.005c-4.994,2.219-10.184,4.069-15.452,5.901
			c0.248,0.554,0.699,0.737,1.089,0.93c5.468,2.702,9.492,6.884,12.356,12.196c1.545,2.869,2.413,6.005,3.083,9.184
			c0.945,4.489,1.235,9.034,1.041,13.609c-0.208,4.863-0.712,9.676-2.188,14.361c-0.787,2.504-1.753,4.891-3.232,7.055
			c-0.624,0.913-1.343,1.748-2.208,2.467c-2.531,2.099-5.976,2.417-8.845,0.767c-2.66-1.53-4.58-3.792-6.183-6.346
			c-2.844-4.53-4.513-9.537-5.792-14.682c-0.626-2.515-1.029-5.088-1.563-7.62c-1.659-7.87-1.772-15.814-1.68-23.793
			c0.021-1.878,0.178-3.747,0.218-5.622c0.014-0.592,0.002-1.185,0.002-1.841c-0.597,0.037-0.921,0.396-1.272,0.667
			c-1.549,1.201-3.084,2.42-4.63,3.625c-0.472,0.366-0.939,0.747-1.451,1.048c-0.643,0.374-1.312,0.268-1.77-0.189
			c-0.435-0.436-0.542-1.152-0.223-1.781c0.293-0.577,0.732-1.051,1.203-1.486c2.129-1.971,4.347-3.836,6.65-5.599
			c0.305-0.234,0.594-0.491,0.919-0.692c0.64-0.396,0.862-0.958,0.915-1.698c0.213-3.062,0.405-6.126,0.738-9.177
			c0.361-3.297,0.743-6.596,1.398-9.856c0.646-3.214,1.245-6.435,2.125-9.598c1.203-4.324,2.672-8.523,4.971-12.413
			c1.914-3.238,4.204-6.109,7.42-8.128c2.381-1.495,4.937-2.237,7.793-1.581c3.64,0.835,5.9,3.099,6.934,6.606
			c1.517,5.145,0.797,10.14-1.271,14.979c-3.204,7.491-7.698,14.123-13.399,19.948c-1.939,1.982-3.861,3.978-5.938,5.819
			c-0.287,0.254-0.562,0.502-0.587,0.941c-0.087,1.527-0.199,3.052-0.309,4.668c1.069-0.045,1.962-0.449,2.889-0.676
			c5.141-1.258,10.165-2.879,15.091-4.813c0.797-0.313,1.193-0.658,1.204-1.636c0.03-2.43,0.297-4.848,1.113-7.174
			c0.302-0.854,0.719-1.643,1.208-2.391c0.798-1.22,1.965-1.788,3.398-1.551c1.491,0.247,2.412,1.205,2.759,2.677
			c0.314,1.329,0.546,2.673,0.659,4.036c0.251,3.062,0.584,6.11,1.18,9.129c0.565,2.859,1.601,5.556,2.668,8.252
			c0.871,2.201,2.136,4.17,3.407,6.137c0.693,1.073,1.541,2.049,2.481,2.912c2.241,2.061,5.13,2.232,8.047,0.571
			c3.38-1.926,5.783-4.749,7.438-8.214c2.394-5.006,3.023-10.259,2.004-15.709c-0.166-0.885-0.174-0.906-1.063-0.773
			c-4.136,0.619-8.064-0.257-11.886-1.719c-2.071-0.791-3.819-2.094-4.989-4.032c-1.283-2.127-1.638-4.417-0.692-6.74
			c1.19-2.923,4.171-4.973,7.68-4.537c3.121,0.388,5.743,1.753,7.963,3.979c2.244,2.251,3.729,4.959,4.925,7.855
			c0.369,0.894,0.364,0.909,1.242,0.539c2.771-1.166,5.276-2.77,7.653-4.599c0.666-0.514,0.853-1.122,0.796-1.887
			c-0.104-1.365-0.045-2.726,0.064-4.089c0.087-1.071,0.361-2.097,0.612-3.132c0.186-0.763,0.559-1.428,1.053-2.026
			c1.47-1.786,3.919-1.481,4.905,0.614c0.604,1.283,0.859,2.675,1.174,4.042c0.282,1.226,0.479,2.47,0.741,3.846
			c0.447-0.527,0.546-1.069,0.716-1.57c1.676-4.932,4.264-9.283,8.135-12.823c1.314-1.203,2.773-2.097,4.565-2.413
			c2.543-0.45,4.536,0.559,6.115,2.399c2.556,2.979,3.107,6.555,2.74,10.33c-0.597,6.146-2.797,11.748-6.009,16.956
			c-2.007,3.252-4.675,5.964-7.522,8.494c-0.408,0.363-0.908,0.646-1.183,1.232c0.602,0.519,1.34,0.847,1.986,1.305
			c2.747,1.943,4.586,4.501,5.627,7.696c0.798,2.448,1.056,4.992,1.533,7.497c0.137,0.715,0.315,1.417,0.692,2.048
			c0.687,1.145,1.463,1.316,2.539,0.527c1.163-0.853,1.953-2.043,2.62-3.275c2.46-4.535,4.645-9.211,6.918-13.842
			c0.181-0.368,0.181-0.714,0.099-1.11c-1-4.847-0.945-9.727-0.53-14.633c0.379-4.476,1.085-8.892,2.303-13.203
			c1.357-4.812,2.999-9.523,6.317-13.428c1.548-1.82,3.316-3.304,5.742-3.822c1.402-0.3,2.703-0.032,3.971,0.563
			c2.534,1.188,4.192,3.174,5.144,5.759c1.089,2.956,1.748,5.977,1.05,9.143c-0.758,3.428-4.418,8.063-9.426,8.688
			c-1.534,0.19-3.054,0.255-4.59,0.216c-1.007-0.026-0.991,0-1.075,0.931c-0.289,3.227-0.486,6.46-0.481,9.697
			c0.007,4.052,0.18,8.094,1.367,12.016c0.648,2.146,1.566,4.145,3.103,5.81c1.281,1.388,2.754,1.704,4.519,0.988
			c1.732-0.702,3.133-1.882,4.447-3.169c2.309-2.262,3.994-4.992,5.627-7.738c3.225-5.426,6.142-11.02,8.797-16.749
			c0.447-0.967,0.84-1.96,1.303-2.919c0.354-0.733,0.339-1.448,0.188-2.233c-0.853-4.392-1.628-8.794-1.692-13.288
			c-0.011-0.743,0.13-1.452,0.378-2.127c0.627-1.701,2.28-2.146,3.715-1.039c0.938,0.725,1.508,1.729,2.032,2.756
			c1.187,2.323,2.047,4.776,2.783,7.272c0.673,2.286,1.309,4.585,1.897,6.894c0.642,2.518,1.159,5.066,1.761,7.591
			c0.562,2.361,1.108,4.728,1.702,7.082c0.696,2.767,1.362,5.542,2.023,8.316c0.114,0.485,0.192,0.973,0.517,1.541
			c0.438-1.4,0.446-2.724,0.565-4.026c0.491-5.306,0.755-10.627,1.114-15.944c0.193-2.844,0.313-5.706,0.865-8.521
			c0.114-0.59,0.276-1.16,0.503-1.713c0.785-1.92,2.399-2.655,4.345-1.946c0.8,0.29,1.572,0.657,2.361,0.978
			c2.216,0.898,4.491,1.609,6.794,2.253c0.642,0.179,0.805,0.009,0.925-0.587c0.515-2.553,1.197-5.063,2.304-7.431
			c1.679-3.595,3.763-6.902,7.153-9.147c2.488-1.648,5.168-2.458,8.114-1.284c2.969,1.183,4.679,3.461,5.426,6.496
			c1.828,7.419-3.336,13.486-8.726,15.472c-1.816,0.668-3.672,1.114-5.601,1.212c-0.614,0.03-0.794,0.296-0.801,0.872
			c-0.028,2.132,0.023,4.257,0.196,6.386c0.19,2.342,0.49,4.66,1.155,6.91c0.654,2.21,1.406,4.384,3.15,6.04
			c1.593,1.513,3.53,2.155,5.664,2.36c4.383,0.421,8.113-1.116,11.473-3.788c5.104-4.056,8.601-9.293,11.153-15.215
			c1.409-3.271,2.271-6.692,2.667-10.232c0.115-1.044,0.112-1.058-0.938-1.129c-1.148-0.08-2.298-0.124-3.436-0.336
			c-3.164-0.587-5.424-2.441-6.95-5.163c-1.472-2.628-2.138-5.456-1.526-8.503c0.481-2.396,1.662-4.271,3.815-5.469
			c2.065-1.148,4.046-0.862,5.849,0.56c2.309,1.822,3.795,4.235,4.735,6.997c0.678,1.989,1.067,4.035,1.206,6.133
			c0.071,1.068,0.151,1.152,1.239,1.023c2.071-0.246,4.139-0.532,6.208-0.796c0.804-0.103,1.606-0.225,2.413-0.28
			c5.978-0.412,9.926,3.014,11.328,8.571c0.873,3.465,0.905,6.99,0.553,10.544c-0.496,5.008-1.36,9.962-1.989,14.948
			c-0.399,3.163-0.715,6.358-0.434,9.565c0.115,1.321,0.295,2.626,0.79,3.869c0.918,2.308,2.505,3.069,4.902,2.32
			c1.746-0.546,3.261-1.514,4.509-2.824c3.322-3.491,5.814-7.461,6.678-12.292c0.331-1.85,0.424-3.729,0.452-5.607
			c0.057-3.667,0.079-7.333-0.518-10.973c-0.1-0.61-0.228-1.099-0.751-1.533c-0.765-0.636-0.79-1.743-0.193-2.398
			c0.76-0.832,1.963-0.915,2.748-0.165c0.674,0.645,0.959,1.499,1.186,2.372c0.41,1.575,0.598,3.188,0.698,4.804
			c0.248,4.001,0.476,8.007,0.087,12.014c-0.703,7.256-3.75,13.324-9.37,17.998c-2.655,2.208-5.723,3.516-9.277,3.396
			c-1.546-0.052-2.939-0.558-4.169-1.439c-2.435-1.748-4.009-4.13-4.977-6.954c-1.622-4.732-1.811-9.606-1.469-14.528
			c0.28-4.039,0.76-8.053,1.39-12.058c0.429-2.727,0.854-5.476,0.769-8.263c-0.034-1.116-0.18-2.208-0.459-3.285
			c-0.358-1.382-1.247-2.157-2.661-2.411c-1.229-0.222-2.455-0.246-3.693-0.17c-1.702,0.104-3.404,0.209-5.107,0.277
			c-0.674,0.028-0.96,0.316-1.022,0.986c-0.184,1.997-0.517,3.974-0.993,5.923c-1.581,6.461-4.741,12.114-8.819,17.3
			c-2.633,3.349-5.646,6.283-9.361,8.414c-3.786,2.172-7.827,3.312-12.243,2.819c-2.651-0.295-5.137-1.139-7.17-2.817
			c-2.202-1.818-4.038-3.987-5.148-6.729c-0.817-2.021-1.6-4.041-2.023-6.174c-0.767-3.858-1.094-7.757-0.828-11.692
			c0.072-1.078,0.066-1.079-1.026-1.375c-3.103-0.839-6.069-2.002-8.804-3.712c-0.182-0.113-0.368-0.217-0.556-0.317
			c-0.389-0.209-0.645-0.079-0.803,0.313c-0.257,0.638-0.393,1.304-0.482,1.981c-0.474,3.556-0.641,7.136-0.82,10.713
			c-0.245,4.854-0.455,9.711-0.633,14.568c-0.142,3.964-0.213,7.93-0.32,11.894c-0.01,0.383-0.021,0.771-0.088,1.146
			c-0.235,1.339-0.827,2.478-2.201,2.894c-1.439,0.435-2.777,0.119-3.918-0.919c-1.288-1.171-2.172-2.625-2.905-4.17
			c-2.053-4.322-3.648-8.818-4.822-13.451c-0.825-3.26-1.702-6.51-2.273-9.833C270.26,284.215,269.841,282.824,269.431,281.128z
			 M142.605,334.292c-0.012-4.102-0.273-8.176-1.297-12.169c-0.991-3.865-2.423-7.538-4.801-10.784
			c-2.769-3.781-6.435-6.4-10.71-8.221c-0.873-0.371-1.017-0.307-1.041,0.686c-0.063,2.513-0.086,5.026-0.109,7.54
			c-0.051,5.67,0.325,11.324,0.571,16.984c0.041,0.935,0.083,1.869,0.19,2.796c0.226,1.945,0.503,3.883,0.744,5.824
			c0.558,4.488,1.348,8.929,2.689,13.254c0.58,1.872,1.26,3.717,2.408,5.339c1.559,2.203,3.521,2.419,5.5,0.593
			c0.372-0.345,0.724-0.725,1.03-1.129c1.408-1.858,2.339-3.978,2.981-6.183C142.145,344.086,142.573,339.209,142.605,334.292z
			 M125.976,286.184c0.479,0.049,0.607-0.211,0.785-0.376c5.162-4.843,9.528-10.318,13.015-16.482
			c1.682-2.974,3.204-6.021,3.951-9.386c0.689-3.104,0.685-6.172-0.585-9.153c-1.382-3.24-4.905-4.005-7.547-1.652
			c-2.367,2.106-3.709,4.847-4.76,7.748c-1.305,3.613-2.061,7.37-2.744,11.138c-0.348,1.925-0.694,3.859-0.871,5.806
			c-0.207,2.288-0.473,4.57-0.696,6.856C126.346,282.498,126.162,284.313,125.976,286.184z M202.781,297.25
			c2.57-2.072,4.786-4.095,6.62-6.51c2.574-3.393,4.339-7.213,5.763-11.195c1.268-3.544,2.173-7.168,1.964-10.985
			c-0.088-1.592-0.344-3.129-1.277-4.479c-0.574-0.828-1.345-1.11-2.327-0.945c-0.915,0.154-1.678,0.607-2.385,1.162
			c-1.625,1.273-2.979,2.803-4.018,4.584c-2.624,4.5-4.175,9.394-5.222,14.467c-0.096,0.463-0.053,0.918,0.002,1.391
			c0.203,1.731,0.39,3.468,0.507,5.207C202.564,292.278,202.65,294.613,202.781,297.25z M242.617,274.93
			c1.12,0.023,2.216-0.12,3.295-0.402c3.175-0.831,5.685-3.868,5.825-7.154c0.109-2.532-0.567-4.891-1.809-7.09
			c-0.424-0.751-1.002-1.371-1.74-1.842c-1.464-0.935-2.579-0.785-3.712,0.555c-0.665,0.786-1.179,1.674-1.585,2.617
			c-1.411,3.274-2.09,6.743-2.695,10.23c-0.125,0.714-0.197,1.437-0.313,2.15c-0.075,0.466,0.046,0.728,0.568,0.755
			C241.176,274.787,241.896,274.867,242.617,274.93z M320.425,263.391c-0.016-1.961-0.487-3.559-1.708-4.881
			c-0.933-1.012-2.03-1.175-3.216-0.475c-0.71,0.417-1.285,0.992-1.769,1.642c-2.553,3.429-3.751,7.398-4.518,11.529
			c-0.14,0.751-0.048,0.811,0.713,0.761c3.182-0.206,5.957-1.35,8.195-3.652C319.5,266.897,320.309,265.192,320.425,263.391z
			 M179.412,283.894c-0.592-2.925-3.232-6.752-6.132-8.68c-1.454-0.966-3.084-1.444-4.847-1.303c-1.176,0.095-2.101,0.655-2.7,1.686
			c-0.986,1.692-0.689,3.331,0.889,4.668c2.404,2.035,5.239,3.131,8.293,3.744C176.399,284.307,177.867,284.282,179.412,283.894z
			 M343.035,263.262c1.105,0.059,1.214,0.016,1.154-0.63c-0.3-3.196-1.16-6.195-3.177-8.774c-0.558-0.713-1.202-1.335-2.01-1.75
			c-0.767-0.396-1.281-0.248-1.76,0.459c-0.391,0.579-0.549,1.24-0.624,1.927c-0.163,1.479,0.073,2.945,0.642,4.265
			C338.708,262.112,339.625,263.097,343.035,263.262z"/>
	</g>
	<g>
		<path fill-rule="evenodd" clip-rule="evenodd" d="M240.919,116.041c-1.14,1.679-2.224,3.311-3.343,4.917
			c-3.679,5.284-7.359,10.567-11.071,15.828c-0.566,0.805-0.745,1.409-0.157,2.361c1.657,2.69,2.931,5.562,3.653,8.672
			c0.639,2.75,0.786,5.51,0.096,8.227c-0.982,3.868-3.33,6.64-7.122,8.108c-1.17,0.453-2.336,0.7-3.605,0.68
			c-3.942-0.064-6.188-2.98-6.328-6.498c-0.083-2.113,0.385-4.151,1.084-6.138c0.995-2.825,2.314-5.5,3.873-8.05
			c0.425-0.693,0.349-1.162-0.102-1.81c-2.377-3.411-5.236-6.392-8.164-9.316c-0.207-0.206-0.465-0.36-0.711-0.549
			c-0.115,0.127-0.243,0.203-0.274,0.308c-1.481,5.051-4.062,9.553-6.923,13.915c-2.064,3.147-4.314,6.142-7.127,8.676
			c-2.357,2.124-4.913,3.955-7.818,5.268c-5.306,2.398-10.084,1.598-14.38-2.129c-3.343-2.898-5.439-6.616-6.882-10.747
			c-1.088-3.115-1.77-6.311-1.962-9.605c-0.062-1.063-0.091-2.128-0.1-3.192c-0.006-0.588-0.188-0.884-0.831-0.766
			c-1.342,0.247-2.688,0.476-4.032,0.709c-0.526,0.092-0.672,0.365-0.588,0.906c0.697,4.443,0.423,8.854-0.694,13.192
			c-1.515,5.883-4.624,10.692-9.879,13.924c-2.099,1.292-4.401,2.065-6.893,2.125c-6.778,0.164-11.399-5.716-9.667-12.285
			c1.044-3.958,3.241-7.197,6.217-9.947c3.745-3.462,8.071-5.974,12.794-7.838c0.159-0.062,0.321-0.118,0.479-0.178
			c1.229-0.463,1.241-0.468,0.781-1.737c-0.405-1.121-0.813-2.244-1.271-3.345c-1.219-2.937-2.77-5.677-5.021-7.951
			c-2.333-2.354-5.107-3.698-8.506-3.301c-2.343,0.275-4.402,1.292-6.292,2.665c-4.775,3.47-7.91,8.174-10.119,13.554
			c-0.581,1.417-0.976,2.909-1.506,4.349c-0.738,2.006-0.479,4.033-0.2,6.064c0.162,1.188,0.221,2.379,0.192,3.574
			c-0.032,1.367-0.775,2.429-1.888,2.755c-1.151,0.338-2.425-0.203-3.136-1.42c-1.274-2.18-2.191-4.531-3.015-6.903
			c-0.961-2.774-1.931-5.556-2.618-8.419c-0.457-1.905-0.898-3.814-1.289-5.735c-0.592-2.916-1.133-5.844-1.694-8.764
			c-0.329-0.063-0.6,0.07-0.861,0.199c-3.601,1.773-7.127,3.674-10.223,6.267c-4.646,3.894-7.618,8.8-8.724,14.77
			c-0.235,1.27-0.427,2.613,0.521,3.803c0.448,0.563,0.301,1.294-0.142,1.767c-0.458,0.489-1.234,0.608-1.883,0.246
			c-0.699-0.392-1.139-1.006-1.42-1.75c-0.573-1.521-0.624-3.094-0.388-4.669c0.988-6.594,4.05-12.04,9.085-16.412
			c3.223-2.795,6.924-4.8,10.696-6.703c0.686-0.347,1.367-0.703,2.076-0.993c0.57-0.235,0.728-0.564,0.641-1.182
			c-0.25-1.772-0.445-3.554-0.627-5.335c-0.385-3.791-0.225-7.565,0.23-11.351c0.421-3.499,1.265-6.87,2.662-10.088
			c1.271-2.924,3.07-5.504,5.519-7.588c4.72-4.02,10.831-3.457,15.069-0.099c5.489,4.35,8.043,12.93,3.976,20.227
			c-2.491,4.47-6.009,7.927-10.294,10.64c-2.16,1.368-4.378,2.647-6.708,3.713c-0.54,0.247-0.798,0.563-0.677,1.178
			c0.521,2.63,0.818,5.298,1.412,7.918c0.609,2.688,1.132,5.396,1.698,8.124c0.52-0.182,0.54-0.62,0.683-0.947
			c2.264-5.167,5.565-9.572,9.841-13.229c2.577-2.207,5.393-4.036,8.777-4.805c4.187-0.95,8.048-0.17,11.569,2.225
			c3.025,2.057,5.242,4.848,6.942,8.062c1.26,2.381,2.286,4.853,2.896,7.489c0.251,1.092,0.289,1.076,1.385,0.848
			c1.419-0.296,2.838-0.593,4.262-0.861c0.487-0.092,0.733-0.304,0.775-0.822c0.116-1.399,0.248-2.798,0.418-4.192
			c0.563-4.615,1.628-9.077,4.466-12.889c1.47-1.975,3.23-3.584,5.771-4.193c2.199-0.528,4.195-0.147,5.966,1.103
			c6.989,4.938,5.563,13.187,0.931,17.315c-2.23,1.989-4.876,3.087-7.648,3.982c-1.016,0.327-1.017,0.313-1.072,1.376
			c-0.133,2.521,0.131,5.019,0.401,7.519c0.256,2.378,0.629,4.727,1.253,7.039c0.547,2.029,1.297,3.964,2.372,5.775
			c2.175,3.662,6.28,5.143,10.28,3.692c3.156-1.146,5.751-3.131,8.108-5.456c4.322-4.262,7.288-9.415,9.72-14.913
			c0.829-1.875,1.477-3.812,2.023-5.789c0.174-0.631,0.023-1.017-0.451-1.437c-2.202-1.95-4.362-3.951-6.338-6.136
			c-2.15-2.375-4.15-4.862-5.533-7.788c-1.463-3.096-1.772-6.302-0.875-9.593c0.683-2.499,2.119-4.34,4.786-4.981
			c1.366-0.329,2.623-0.023,3.834,0.573c1.856,0.916,3.188,2.403,4.317,4.087c3.18,4.74,4.517,9.987,4.122,15.658
			c-0.075,1.079,0.254,1.688,1.093,2.313c3.523,2.627,6.891,5.441,9.858,8.704c0.573,0.63,1.126,1.281,1.671,1.936
			c0.855,1.025,0.867,1.042,1.689-0.084c1.536-2.1,3.063-4.206,4.571-6.324c2.644-3.719,5.284-7.438,7.9-11.177
			c1.174-1.676,2.275-3.402,3.43-5.092c0.377-0.554,0.516-1.135,0.527-1.801c0.046-2.555,0.111-5.111,0.217-7.664
			c0.123-2.981,0.295-5.96,0.447-8.939c0.011-0.213,0.023-0.427,0.033-0.639c0.028-0.534-0.199-0.742-0.758-0.747
			c-2.137-0.015-4.269,0.088-6.382,0.379c-2.621,0.362-5.202,0.928-7.689,1.865c-0.923,0.348-1.811,0.768-2.636,1.293
			c-0.752,0.48-1.46,1.002-1.8,1.919c-0.257,0.693-0.827,0.912-1.426,0.724c-0.573-0.18-0.893-0.721-0.791-1.426
			c0.156-1.074,0.786-1.87,1.575-2.559c1.607-1.403,3.521-2.235,5.522-2.867c4.296-1.357,8.701-2.077,13.213-2.096
			c1.206-0.005,1.271,0.269,1.41-1.301c0.433-4.93,0.977-9.842,2.287-14.637c0.173-0.629,0.438-1.209,0.785-1.741
			c1.001-1.532,2.791-1.519,3.767,0.023c0.578,0.915,0.832,1.958,1.045,3.005c0.613,3.02,0.742,6.089,0.868,9.154
			c0.074,1.832,0.108,3.668,0.065,5.499c-0.018,0.756,0.3,0.937,0.939,1.053c3.315,0.604,6.569,1.475,9.806,2.397
			c4.179,1.193,8.306,2.561,12.519,3.628c5.997,1.52,12.033,2.859,18.242,3.124c4.073,0.175,8.107-0.104,11.968-1.573
			c2.912-1.106,5.339-2.827,6.844-5.654c0.739-1.387,1.103-2.854,1.047-4.426c-0.092-2.525-1.939-5.106-4.308-6.008
			c-2.09-0.795-4.025-0.189-5.222,1.71c-1.037,1.646-1.432,3.445-1.004,5.374c0.114,0.513,0.084,0.948-0.395,1.226
			c-0.521,0.304-0.998,0.134-1.374-0.285c-0.193-0.218-0.407-0.487-0.449-0.76c-0.524-3.333-0.652-6.188,2.58-8.771
			c1.864-1.488,3.904-1.809,6.129-1.05c4.669,1.592,7.258,6.623,5.879,11.439c-1.028,3.596-3.351,6.177-6.502,8.057
			c-3.142,1.873-6.618,2.671-10.216,3.028c-6.004,0.595-11.914-0.116-17.775-1.37c-4.921-1.054-9.737-2.497-14.565-3.904
			c-4.376-1.275-8.782-2.442-13.252-3.355c-0.84-0.171-1.051-0.23-1.119,0.891c-0.281,4.595-0.456,9.194-0.576,13.793
			c-0.146,5.537-0.226,11.078,0.057,16.622c0.228,4.468,0.287,8.947,0.605,13.411c0.368,5.185,0.614,10.388,1.787,15.481
			c0.211,0.916,0.478,1.819,0.9,2.658c0.652,1.292,1.329,1.477,2.57,0.75c0.897-0.524,1.602-1.267,2.267-2.049
			c1.782-2.098,3.128-4.477,4.278-6.952c3.254-7,6.146-14.147,8.5-21.506c0.467-1.46,0.871-2.941,1.315-4.409
			c0.148-0.489,0.298-0.98,0.621-1.396c0.321-0.41,0.723-0.592,1.235-0.447c0.463,0.134,0.679,0.487,0.759,0.938
			c0.075,0.429-0.012,0.848-0.078,1.27c-0.596,3.85-1.667,7.575-2.991,11.225c-2.501,6.894-5.328,13.655-8.358,20.33
			c-1.118,2.461-2.596,4.698-4.729,6.441c-1.394,1.141-2.93,1.892-4.761,1.938c-1.843,0.048-3.296-0.803-4.489-2.093
			c-1.414-1.53-2.216-3.427-2.918-5.357c-1.678-4.617-2.902-9.362-3.758-14.19c-0.967-5.457-1.57-10.964-1.711-16.512
			c-0.062-2.428-0.097-4.854-0.149-7.282C241.141,116.541,241.209,116.319,240.919,116.041z M112.898,112.269
			c0.292-0.102,0.461-0.139,0.611-0.214c2.899-1.464,5.675-3.132,8.199-5.181c2.296-1.863,4.304-4.003,5.85-6.548
			c2.486-4.095,2.96-8.305,0.621-12.614c-1.242-2.291-2.876-4.229-5.46-5.129c-2.426-0.845-4.679-0.247-6.363,1.675
			c-1.2,1.368-2.046,2.948-2.663,4.63c-1.276,3.481-1.64,7.125-1.673,10.808c-0.029,3.328,0.205,6.643,0.543,9.952
			C112.648,110.489,112.647,111.34,112.898,112.269z M153,143.153c-0.06-1.97-0.33-3.905-0.681-5.835
			c-0.098-0.543-0.273-0.783-0.831-0.55c-0.156,0.066-0.323,0.105-0.483,0.163c-5.726,2.059-10.728,5.181-14.493,10.048
			c-1.827,2.361-3.079,4.999-3.26,8.047c-0.1,1.671,0.22,3.237,1.312,4.555c1.623,1.955,3.674,2.984,6.27,2.778
			c4.229-0.333,7.266-2.517,9.267-6.145C152.334,152.16,152.962,147.711,153,143.153z M172.891,129.527
			c2.57-0.838,5.209-1.671,7.234-3.684c2.124-2.11,2.639-5.188,1.381-7.909c-0.669-1.445-1.677-2.549-3.338-2.892
			c-0.741-0.153-1.31,0.048-1.82,0.609c-0.741,0.815-1.128,1.802-1.445,2.816c-1.059,3.377-1.708,6.844-2.223,10.339
			C172.648,129.021,172.634,129.231,172.891,129.527z M207.803,120.867c0.088-0.298,0.155-0.418,0.153-0.537
			c-0.097-4.014-0.788-7.874-2.931-11.363c-0.831-1.354-1.755-2.627-3.087-3.531c-1.863-1.269-3.155-0.745-3.571,1.466
			c-0.464,2.459,0.337,4.611,1.705,6.613c1.091,1.597,2.472,2.932,3.886,4.218C205.143,118.81,206.33,119.903,207.803,120.867z
			 M220.527,146.792c-0.187-0.03-0.284,0.068-0.34,0.177c-1.28,2.458-2.396,4.985-2.817,7.747c-0.192,1.26-0.243,2.545,0.231,3.779
			c0.441,1.143,1.076,1.402,2.192,0.884c0.591-0.276,1.048-0.706,1.422-1.239c0.998-1.424,1.321-3.04,1.208-4.721
			C222.268,151.075,221.645,148.842,220.527,146.792z"/>
	</g>
	<g>
		<g>
			<path fill-rule="evenodd" clip-rule="evenodd" d="M341.35,205.517c0.563-0.168,0.748-0.645,1.051-0.985
				c1.757-1.981,3.538-3.934,5.76-5.419c0.862-0.578,1.803-0.969,2.849-1.05c0.497-0.039,0.944,0.085,1.18,0.579
				c0.22,0.463,0.028,1.025-0.579,1.232c-3.67,1.244-5.66,4.387-8.086,7.044c-0.423,0.462-0.389,0.82-0.021,1.314
				c1.607,2.158,3.005,4.454,4.045,6.938c1.293,3.091,2.083,6.312,2.124,9.682c0.039,3.277-0.688,6.347-2.663,9.034
				c-2.572,3.498-7.7,5.161-11.483,3.115c-2.002-1.083-3.082-2.898-3.746-4.981c-1.046-3.28-0.745-6.568,0.081-9.839
				c0.864-3.424,2.345-6.572,4.292-9.508c0.617-0.931,0.746-0.83-0.104-1.826c-2.27-2.665-4.734-5.142-7.251-7.569
				c-0.084-0.081-0.215-0.116-0.394-0.21c-0.358,0.448-0.437,1.01-0.599,1.509c-2.019,6.204-5.076,11.904-8.43,17.461
				c-1.3,2.155-2.685,4.255-4.334,6.166c-1.117,1.296-2.313,2.508-3.794,3.403c-2.189,1.325-4.367,1.271-6.517-0.061
				c-2.479-1.536-3.855-3.893-4.848-6.547c-1.021-2.735-1.502-5.586-1.896-8.454c-0.582-4.221-0.968-8.46-1.12-12.723
				c-0.075-2.087-0.103-4.175-0.116-6.262c-0.001-0.292-0.04-0.583-0.075-1.05c-0.361,0.479-0.396,0.901-0.495,1.296
				c-1.783,7.213-4.057,14.259-7.194,21.007c-1.39,2.991-3.018,5.831-5.269,8.272c-1.019,1.105-2.169,2.039-3.471,2.8
				c-3.823,2.233-7.597,0.477-9.655-2.362c-1.53-2.112-2.495-4.437-3.137-6.918c-0.446,0.021-0.437,0.388-0.557,0.634
				c-1.874,3.88-3.896,7.679-6.313,11.254c-1.077,1.593-2.253,3.107-3.673,4.417c-2.763,2.545-5.322,2.468-7.932-0.215
				c-1.058-1.085-1.827-2.361-2.457-3.716c-1.173-2.521-1.946-5.148-2.357-7.922c-0.681-4.598-0.48-9.182-0.189-13.779
				c0.238-3.786,0.738-7.543,1.14-11.313c0.547-5.124,1.065-10.264,0.886-15.434c-0.042-1.229-0.033-2.472-0.407-3.671
				c-0.348-1.116-0.558-1.239-1.644-0.73c-1.373,0.644-2.471,1.664-3.49,2.759c-3.11,3.346-5.418,7.216-7.324,11.34
				c-2.459,5.321-3.784,10.935-4.345,16.752c-0.369,3.83-0.364,7.663-0.24,11.501c0.019,0.597,0.041,1.195,0.019,1.791
				c-0.033,0.875-0.393,1.58-1.24,1.923c-0.897,0.363-1.674,0.085-2.329-0.573c-0.764-0.769-1.274-1.716-1.69-2.694
				c-1.198-2.823-2.213-5.712-3.015-8.681c-1.112-4.113-2.036-8.268-2.818-12.455c-0.226-1.211-0.436-2.426-0.655-3.65
				c-0.422,0.066-0.424,0.404-0.53,0.65c-1.858,4.309-3.331,8.758-4.885,13.18c-1.01,2.869-2.298,5.595-4.185,8.009
				c-1.085,1.389-2.337,2.607-3.771,3.622c-3.756,2.658-8.325,2.544-11.948-0.442c-2.672-2.202-4.31-5.138-5.601-8.283
				c-0.418-1.021-0.711-2.096-1.059-3.146c-0.077-0.234-0.058-0.522-0.454-0.641c-0.441,2.025-0.883,4.042-1.32,6.059
				c-0.794,3.663-1.542,7.338-2.395,10.988c-0.705,3.016-1.857,5.85-3.925,8.228c-0.335,0.385-0.69,0.763-1.09,1.077
				c-1.107,0.873-2.323,1.117-3.718,0.71c-1.966-0.574-3.303-1.911-4.438-3.488c-2.443-3.399-3.939-7.245-5.129-11.222
				c-0.917-3.065-1.589-6.185-2.006-9.36c-0.27-2.065-0.386-4.144-0.516-6.441c-0.603,1.188-0.78,2.315-1.08,3.387
				c-1.404,5.003-2.77,10.018-4.12,15.035c-0.786,2.922-1.504,5.861-2.284,8.784c-0.295,1.11-0.63,2.217-1.032,3.292
				c-1.309,3.492-4.202,4.044-6.692,1.309c-1.048-1.15-1.799-2.506-2.42-3.896c-1.801-4.029-2.964-8.223-3.299-12.667
				c-0.32-4.244-0.534-8.524-1.51-12.683c-0.491-2.096-1.11-4.193-2.279-6.073c-1.345-2.165-3.424-3.128-5.772-3.642
				c-1.454-0.321-2.941-0.478-4.433-0.563c-0.809-0.045-0.823-0.055-0.838,0.792c-0.056,3.301-0.518,6.541-1.484,9.699
				c-0.589,1.923-1.304,3.788-2.671,5.331c-0.461,0.521-0.986,0.947-1.595,1.26c-0.652,0.334-1.266,0.216-1.616-0.264
				c-0.387-0.53-0.273-1.037,0.103-1.524c3.314-4.312,4.147-9.344,4.233-14.59c0.017-1.042-0.015-1.037-1.015-1.179
				c-2.157-0.307-4.292-0.731-6.33-1.515c-2.765-1.061-5.042-2.689-6.093-5.617c-1.169-3.258,0.09-7.181,3.149-8.714
				c2.167-1.088,4.236-0.714,6.213,0.438c2.755,1.604,4.314,4.169,5.438,7.047c0.387,0.993,0.737,2.003,0.906,3.059
				c0.083,0.519,0.32,0.739,0.835,0.747c1.107,0.016,2.214,0.052,3.321,0.086c2.683,0.083,5.381,0.054,7.968,0.927
				c2.99,1.01,5.416,2.753,7.302,5.333c2.246,3.075,3.039,6.626,3.642,10.25c0.708,4.252,0.81,8.568,1.283,12.848
				c0.292,2.624,0.518,5.256,0.798,7.882c0.054,0.497,0.225,0.98,0.342,1.47c0.442-0.088,0.395-0.446,0.481-0.712
				c2.33-7.175,4.21-14.479,6.17-21.759c1.175-4.359,2.349-8.719,3.555-13.067c0.243-0.88,0.311-1.746,0.28-2.649
				c-0.087-2.604,0.003-5.198,0.68-7.736c0.309-1.157,0.962-2.009,2.209-2.206c1.136-0.18,2.196,0.502,2.869,1.723
				c0.823,1.491,1.01,3.16,1.299,4.787c0.517,2.896,0.72,5.831,0.987,8.761c0.486,5.306,0.581,10.635,1.092,15.936
				c0.461,4.759,1.352,9.439,2.929,13.968c0.351,1.005,0.807,1.975,1.396,2.867c0.795,1.206,1.104,1.229,2.108,0.134
				c1.085-1.183,1.751-2.609,2.3-4.097c1.243-3.372,1.958-6.885,2.753-10.374c0.89-3.905,1.634-7.843,2.542-11.742
				c0.537-2.313,0.688-4.597,0.437-6.964c-0.419-3.918-0.25-7.833,0.667-11.684c0.537-2.255,1.423-4.372,2.769-6.277
				c0.666-0.942,1.446-1.764,2.373-2.479c1.862-1.441,4.788-1.437,6.903,0.563c0.812,0.768,1.539,1.615,2.028,2.617
				c2.153,4.404,2.21,8.793-0.29,13.081c-1.223,2.094-3.032,3.573-5.337,4.361c-0.72,0.247-0.896,0.608-0.783,1.317
				c0.645,4.051,1.568,8.029,3.065,11.855c0.654,1.671,1.472,3.258,2.695,4.609c1.559,1.722,3.311,2.096,5.408,1.081
				c1.527-0.739,2.755-1.848,3.803-3.165c2.237-2.814,3.56-6.093,4.73-9.439c1.281-3.668,2.09-7.466,3.048-11.223
				c0.39-1.527,0.791-3.051,1.226-4.564c0.386-1.345,1.095-2.468,2.596-2.688c1.509-0.221,2.468,0.739,3.276,1.84
				c0.666,0.905,1.013,1.971,1.333,3.028c1.148,3.795,2.113,7.637,2.933,11.516c0.402,1.906,0.813,3.81,1.302,5.707
				c0.426-2.649,0.804-5.284,1.39-7.889c1.838-8.165,5.378-15.504,10.579-22.054c0.984-1.24,2.023-2.422,3.187-3.493
				c1.022-0.942,2.167-1.661,3.578-1.846c2.285-0.298,3.938,0.792,5.291,2.476c1.146,1.428,1.769,3.132,2.173,4.868
				c1.159,4.993,1.016,10.064,0.657,15.134c-0.193,2.72-0.398,5.439-0.66,8.152c-0.43,4.451-0.997,8.889-1.353,13.348
				c-0.255,3.195-0.315,6.39-0.029,9.576c0.143,1.605,0.533,3.192,1.19,4.69c0.085,0.194,0.169,0.393,0.275,0.576
				c0.695,1.205,1.209,1.328,2.35,0.511c1.412-1.013,2.41-2.404,3.351-3.829c2.754-4.171,5.197-8.508,7.056-13.162
				c0.669-1.675,1.068-3.354,1.075-5.201c0.024-6.271,1.11-12.384,3.311-18.267c1.15-3.078,2.876-5.805,5.466-7.901
				c3.65-2.954,8.103-3.394,11.677-0.698c2.775,2.091,4.436,5.02,5.024,8.485c0.076,0.454,0.017,0.937-0.018,1.404
				c-0.04,0.563-0.311,0.986-0.895,1.096c-0.599,0.112-1.02-0.204-1.191-0.737c-0.736-2.292-2.479-3.853-4.038-5.524
				c-1.688-1.81-4.425-1.909-6.35-0.324c-1.487,1.224-2.449,2.813-3.1,4.61c-0.991,2.737-1.573,5.566-1.941,8.446
				c-0.557,4.366-0.74,8.749-0.537,13.145c0.119,2.568,0.472,5.12,1.585,7.459c1.154,2.423,1.924,2.783,4.222,1.286
				c1.641-1.069,2.824-2.586,3.854-4.22c2.51-3.988,4.34-8.3,5.978-12.702c3.387-9.101,5.507-18.526,7.238-28.053
				c0.121-0.665,0.128-1.357,0.127-2.037c-0.008-3.158,0.256-6.303,0.513-9.444c0.299-3.65,0.672-7.298,1.099-10.937
				c0.183-1.562,0.524-3.111,1-4.62c0.191-0.61,0.427-1.206,0.854-1.703c1.329-1.545,3.593-1.212,4.386,0.661
				c0.234,0.552,0.308,1.147,0.386,1.743c0.472,3.602,0.577,7.219,0.538,10.847c-0.044,4.048,0.034,8.099-0.094,12.144
				c-0.111,3.535-0.112,7.077-0.281,10.609c-0.221,4.603-0.117,9.203-0.175,13.804c-0.038,3.025-0.081,6.055,0.016,9.078
				c0.135,4.214,0.294,8.431,0.79,12.622c0.169,1.435,0.417,2.87,0.881,4.25c0.68,2.021,1.888,2.498,3.744,1.477
				c1.096-0.604,1.996-1.455,2.84-2.364c2.577-2.771,4.565-5.942,6.311-9.278c2.463-4.708,4.192-9.684,5.495-14.825
				c0.274-1.082,0.132-1.843-0.682-2.605c-2.066-1.936-3.783-4.166-5.165-6.634c-1.581-2.826-2.557-5.864-2.671-9.114
				c-0.084-2.383,0.379-4.659,1.778-6.676c0.755-1.085,1.732-1.876,2.934-2.389c1.625-0.695,3.597-0.217,4.88,1.229
				c1.623,1.828,2.509,4.035,3.097,6.374c0.917,3.656,0.8,7.368,0.433,11.066c-0.102,1.029,0.146,1.68,0.881,2.309
				c1.714,1.47,3.422,2.949,5.084,4.479C337.923,201.767,339.729,203.569,341.35,205.517z M338.472,214.179
				c-2.375,3.419-4.134,9.645-3.859,13.493c0.086,1.234,0.249,2.46,0.782,3.604c0.163,0.35,0.344,0.68,0.584,0.984
				c1.604,2.035,4.223,1.959,5.722-0.174c1.05-1.496,1.341-3.205,1.322-4.977c-0.015-1.364-0.226-2.72-0.51-4.052
				C341.832,219.852,340.379,216.991,338.472,214.179z M190.789,197.759c0.486,0.113,0.859-0.115,1.241-0.287
				c4.331-1.95,6.147-8.504,2.636-12.802c-0.322-0.395-0.73-0.698-1.207-0.925c-0.563-0.267-0.954-0.186-1.282,0.366
				c-0.396,0.667-0.683,1.377-0.87,2.12C190.348,190.04,190.334,193.888,190.789,197.759z M120.314,194.535
				c-0.644-2.56-1.658-4.743-3.582-6.427c-0.578-0.507-1.234-0.902-1.971-1.146c-1.6-0.53-2.795,0.289-2.915,1.984
				c-0.12,1.687,0.745,2.862,2.063,3.699C115.807,193.851,117.949,194.317,120.314,194.535z M326.837,191.364
				c0.13-0.176,0.216-0.238,0.222-0.308c0.283-3.831-0.028-7.577-1.696-11.108c-0.273-0.579-0.652-1.104-1.12-1.547
				c-0.54-0.514-0.804-0.478-1.221,0.125c-0.645,0.933-0.74,2.025-0.645,3.073C322.717,185.325,324.277,188.525,326.837,191.364z"/>
			<path fill-rule="evenodd" clip-rule="evenodd" d="M79.483,236.511c-0.724,0.625-1.406,1.198-2.071,1.791
				c-3.511,3.13-7.301,5.868-11.388,8.209c-3.624,2.075-7.213,4.215-11.012,5.966c-1.393,0.642-2.781,1.303-4.287,1.654
				c-0.808,0.188-1.606,0.226-2.362-0.199c-0.673-0.377-1.111-0.94-1.224-1.704c-0.178-1.21,0.942-2.131,2.016-1.562
				c0.625,0.332,1.04,0.151,1.535-0.086c2.771-1.326,5.396-2.918,8.053-4.453c5.568-3.219,10.463-7.33,15.344-11.465
				c1.073-0.909,2.149-1.816,3.272-2.662c0.755-0.569,1.041-1.094,0.79-2.133c-0.801-3.311-1.23-6.695-1.644-10.076
				c-0.51-4.188-0.943-8.377-1.06-12.6c-0.043-1.556-0.181-3.115-0.16-4.832c-1.37,0.563-2.373,1.36-3.421,2.055
				c-3.912,2.591-7.746,5.287-11.197,8.491c-5.507,5.11-9.715,11.066-11.961,18.303c-0.659,2.13-1.121,4.287-0.76,6.547
				c0.128,0.798-0.216,1.305-0.867,1.503c-0.609,0.186-1.214-0.109-1.543-0.813c-0.308-0.661-0.434-1.373-0.491-2.103
				c-0.246-3.141,0.527-6.108,1.621-8.993c2.361-6.233,6.019-11.627,10.74-16.324c4.379-4.355,9.359-7.923,14.536-11.241
				c0.933-0.599,1.87-1.188,2.803-1.788c0.327-0.209,0.574-0.427,0.599-0.896c0.162-3.104,0.31-6.21,0.618-9.305
				c0.523-5.269,1.439-10.443,3.254-15.45c1.009-2.778,2.157-5.469,3.78-7.937c1.764-2.682,3.949-4.868,7.013-6.117
				c4.038-1.646,9.231-0.364,12.08,3.089c3.637,4.411,3.975,9.353,2.185,14.579c-1.445,4.218-4.108,7.634-7.269,10.688
				c-3.416,3.302-7.244,6.085-11.188,8.713c-1.846,1.231-1.825,1.214-1.874,3.447c-0.109,5.036,0.09,10.062,0.532,15.075
				c0.333,3.773,0.786,7.536,1.523,11.258c0.167,0.839,0.209,0.87,0.979,0.505c2.55-1.212,5.164-2.244,7.955-2.739
				c4.8-0.851,9.529-0.69,14.04,1.345c4.994,2.255,8.387,6.082,10.313,11.158c2.31,6.086,2.596,12.312,0.733,18.565
				c-1.059,3.557-2.795,6.783-5.435,9.442c-3.714,3.745-8.115,4.759-13.146,3.223c-3.667-1.119-6.532-3.431-9.144-6.107
				c-4.441-4.555-7.577-9.938-9.979-15.79c-0.938-2.288-1.873-4.569-2.3-7.024C79.953,237.357,79.869,236.962,79.483,236.511z
				 M118.309,245.985c-0.021-2.938-0.294-5.038-1.238-7.793c-2.335-6.812-7.475-11.553-15.601-11.831
				c-5.04-0.173-9.565,1.34-13.81,3.929c-0.515,0.314-0.509,0.637-0.413,1.158c0.52,2.813,1.439,5.516,2.173,8.27
				c1.178,4.426,2.772,8.688,4.879,12.745c1.716,3.304,3.75,6.397,6.599,8.875c3.329,2.896,7.819,2.981,11.233,0.198
				c1.512-1.231,2.663-2.759,3.57-4.467C117.543,253.606,118.32,249.886,118.309,245.985z M84.345,191.731
				c0.297-0.13,0.461-0.174,0.594-0.263c4.277-2.896,8.396-5.987,11.862-9.853c1.976-2.203,3.665-4.607,4.599-7.449
				c1.165-3.55,0.83-6.915-1.567-9.89c-2.855-3.544-6.861-3.018-9.077-0.199c-1.015,1.291-1.802,2.7-2.386,4.203
				c-1.361,3.506-2.111,7.172-2.611,10.891c-0.413,3.073-0.797,6.152-1.184,9.23C84.441,189.454,84.235,190.501,84.345,191.731z"/>
		</g>
		<path fill-rule="evenodd" clip-rule="evenodd" d="M163.983,177.568c0.001,0.127,0.005,0.254,0,0.382
			c-0.067,1.521-1.113,2.667-2.489,2.727c-1.405,0.061-2.98-1.178-3.028-2.558c-0.099-2.787,1.802-3.76,4.193-3.198
			c0.586,0.138,0.979,0.647,1.158,1.263C163.948,176.636,163.98,177.1,163.983,177.568z"/>
	</g>
</g>
</svg>
